<svg xmlns="http://www.w3.org/2000/svg" fill="none" viewBox="0 0 170 60" height="60" width="170">
<g clip-path="url(#clip0_508_70)">
<path fill="#0EAC9F" d="M42.0828 9.10869L39.3881 4.31934L31.1313 15.0406H38.965L41.9497 11.1277C42.17 10.8424 42.3001 10.498 42.3238 10.1385C42.3475 9.77892 42.2637 9.42044 42.0828 9.10869Z"></path>
<path fill="#0EAC9F" d="M27.0029 20.6524L22.1068 27.1634H46.65L26.9402 53.2231C26.7283 53.5062 26.6031 53.8446 26.5795 54.1973C26.5558 54.55 26.6348 54.902 26.8071 55.2108L29.5097 60.0002L56.1444 25.4182C56.4829 24.9802 56.6918 24.4561 56.747 23.9054C56.8023 23.3548 56.7017 22.7997 56.4569 22.3033C56.2121 21.8068 55.8328 21.389 55.3622 21.0971C54.8915 20.8053 54.3482 20.6512 53.7943 20.6524H27.0029Z"></path>
<path fill="#24338A" d="M29.7447 39.3479L34.6408 32.8368H10.0976L29.8074 6.7771C30.0193 6.49397 30.1445 6.15562 30.1681 5.80291C30.1918 5.45019 30.1128 5.09818 29.9406 4.78936L27.238 0L0.603231 34.582C0.264695 35.02 0.0558259 35.5441 0.000591218 36.0948C-0.0546435 36.6454 0.0459238 37.2005 0.290723 37.6969C0.535522 38.1934 0.914784 38.6113 1.38546 38.9031C1.85613 39.1949 2.39939 39.349 2.95335 39.3479H29.7447Z"></path>
<path fill="#24338A" d="M14.6647 50.8909L17.3594 55.6803L25.6162 44.959H17.7825L14.7978 48.8719C14.5775 49.1572 14.4474 49.5016 14.4237 49.8611C14.4 50.2207 14.4838 50.5791 14.6647 50.8909Z"></path>
<path fill="#24338A" d="M82.0349 3.57617H89.9314L101.455 36.1313H94.24L92.0308 29.5107H79.6848L77.5462 36.1313H70.4958L82.0349 3.57617ZM81.5648 23.9231H90.1819L85.9518 10.7993L81.5648 23.9231Z"></path>
<path fill="#24338A" d="M106.367 3.57617H113.166V17.0599L125.653 3.58399H134.333L121.321 16.8878L135.195 36.1547H126.296L116.503 21.8102L113.19 25.1909V36.1469H106.39L106.367 3.57617Z"></path>
<path fill="#24338A" d="M138.101 3.57617H144.909V36.1313H138.101V3.57617Z"></path>
<path fill="#24338A" d="M162.989 3.57617H169.773V26.983C169.773 30.2907 168.888 32.7897 167.117 34.48C165.347 36.1704 162.736 37.0156 159.284 37.0156C155.628 37.0156 152.93 36.0843 151.191 34.2218C149.452 32.3593 148.656 29.4898 148.802 25.6135V23.6649H155.273V25.6135C155.21 27.5934 155.508 29.0568 156.15 30.0037C156.493 30.4881 156.957 30.8749 157.495 31.126C158.034 31.3771 158.629 31.4839 159.221 31.4358C159.75 31.487 160.283 31.4202 160.783 31.2402C161.283 31.0602 161.737 30.7715 162.111 30.395C162.78 29.3889 163.086 28.1859 162.981 26.983L162.989 3.57617Z"></path>
<path fill="#0EAC9F" d="M81.3768 41.6875V44.3639H73.7232V47.4942H80.7736V49.928H73.7232V53.4731H81.557V56.1886H70.5897V41.6875H81.3768Z"></path>
<path fill="#0EAC9F" d="M86.3513 41.6875V56.1886H83.4686V41.6875H86.3513Z"></path>
<path fill="#0EAC9F" d="M91.7097 53.6456C91.9634 53.8683 92.2588 54.0383 92.5789 54.1458C92.899 54.2533 93.2372 54.2961 93.574 54.2717C94.1078 54.2863 94.633 54.136 95.078 53.8413C95.4348 53.6292 95.7105 53.3042 95.8614 52.9178H98.3995C98.1118 54.0072 97.449 54.9605 96.5274 55.6099C95.6122 56.161 94.5558 56.433 93.488 56.3924C92.7249 56.4047 91.9667 56.2692 91.2553 55.9933C90.6173 55.7505 90.0419 55.3682 89.5711 54.8743C89.1024 54.3698 88.7401 53.7763 88.5056 53.1291C88.2484 52.4139 88.1211 51.6587 88.1296 50.8988C88.1223 50.1511 88.2524 49.4084 88.5135 48.7076C88.7588 48.0562 89.1315 47.4603 89.6101 46.9546C90.0899 46.4562 90.6655 46.0596 91.3023 45.7886C91.9943 45.4999 92.7382 45.3561 93.488 45.366C94.3017 45.3447 95.1084 45.522 95.8381 45.8825C96.4806 46.2129 97.038 46.6869 97.4674 47.2676C97.9024 47.8636 98.2164 48.5389 98.3917 49.2554C98.5844 50.0221 98.6531 50.8147 98.5954 51.6031H91.0281C90.9815 52.3465 91.226 53.0788 91.7097 53.6456ZM94.9606 48.1285C94.7539 47.9296 94.5075 47.7766 94.2375 47.6795C93.9675 47.5824 93.68 47.5434 93.3939 47.565C92.9994 47.5519 92.6075 47.6324 92.2502 47.7998C91.969 47.9356 91.7205 48.1305 91.5217 48.3711C91.347 48.589 91.2166 48.8388 91.1378 49.1067C91.0683 49.3307 91.0235 49.5616 91.0045 49.7953H95.7048C95.6156 49.1817 95.358 48.6048 94.9606 48.1285Z"></path>
<path fill="#0EAC9F" d="M105.278 47.5808C104.871 47.5665 104.469 47.6756 104.126 47.8938C103.808 48.0914 103.54 48.3591 103.343 48.6764C103.143 49.0128 103.003 49.3807 102.927 49.7642C102.844 50.1551 102.802 50.5539 102.802 50.9537C102.802 51.3432 102.844 51.7315 102.927 52.1119C103.001 52.4851 103.133 52.8444 103.319 53.1762C103.509 53.4995 103.779 53.7689 104.103 53.9588C104.442 54.1712 104.838 54.2775 105.239 54.264C105.525 54.2808 105.812 54.2387 106.081 54.1405C106.35 54.0422 106.597 53.8898 106.805 53.6927C107.199 53.2589 107.444 52.7103 107.502 52.1276H110.283C110.179 53.3599 109.597 54.5028 108.662 55.3127C107.683 56.0702 106.468 56.4582 105.231 56.4083C104.491 56.4164 103.757 56.2808 103.069 56.0092C102.439 55.767 101.869 55.3904 101.4 54.9057C100.928 54.4215 100.561 53.8464 100.319 53.2154C100.06 52.525 99.9295 51.7928 99.9351 51.0555C99.9267 50.2867 100.048 49.522 100.295 48.7938C100.511 48.1269 100.866 47.5133 101.337 46.9939C101.804 46.4777 102.379 46.0714 103.022 45.8044C103.742 45.5116 104.515 45.3678 105.293 45.3818C105.9 45.3784 106.504 45.46 107.087 45.6244C107.651 45.7706 108.182 46.02 108.654 46.36C109.125 46.7072 109.51 47.1567 109.782 47.6745C110.053 48.1924 110.203 48.7651 110.221 49.3494H107.393C107.373 49.0934 107.303 48.8439 107.185 48.6156C107.067 48.3873 106.905 48.1848 106.708 48.02C106.511 47.8552 106.283 47.7314 106.037 47.656C105.792 47.5806 105.533 47.555 105.278 47.5808Z"></path>
<path fill="#0EAC9F" d="M117.678 45.6792V47.5808H115.571V52.7693C115.529 53.1141 115.616 53.4622 115.814 53.7475C116.099 53.9417 116.443 54.0278 116.786 53.9901C116.942 53.9983 117.099 53.9983 117.255 53.9901C117.398 53.9781 117.539 53.9572 117.678 53.9275V56.1892C117.419 56.2315 117.158 56.2603 116.895 56.2752H116.018C115.593 56.2769 115.169 56.2455 114.749 56.1813C114.378 56.1369 114.021 56.017 113.699 55.8292C113.386 55.6464 113.134 55.3737 112.978 55.0466C112.782 54.6509 112.691 54.2119 112.712 53.771V47.5808H110.965V45.6557H112.712V42.5254H115.595V45.6557L117.678 45.6792Z"></path>
<path fill="#0EAC9F" d="M121.799 45.6792V47.6278C122.073 46.9679 122.54 46.406 123.139 46.0157C123.435 45.8199 123.757 45.6646 124.094 45.554C124.437 45.45 124.794 45.3973 125.152 45.3975C125.365 45.3999 125.576 45.4342 125.779 45.4992V48.1756C125.619 48.1405 125.456 48.117 125.293 48.1052C125.11 48.0939 124.927 48.0939 124.745 48.1052C124.284 48.0919 123.827 48.1801 123.405 48.3634C123.055 48.5271 122.751 48.7744 122.52 49.0834C122.292 49.4035 122.13 49.7651 122.042 50.1477C121.945 50.5818 121.897 51.0255 121.901 51.4702V56.1657H119.018V45.6792H121.799Z"></path>
<path fill="#0EAC9F" d="M127.032 44.0587V41.7109H129.915V44.0587H127.032ZM129.915 45.6786V56.1886H127.032V45.6786H129.915Z"></path>
<path fill="#0EAC9F" d="M137.2 47.5808C136.791 47.5654 136.386 47.6746 136.041 47.8938C135.725 48.0937 135.457 48.361 135.257 48.6764C135.058 49.0128 134.918 49.3807 134.842 49.7642C134.765 50.156 134.725 50.5543 134.725 50.9537C134.726 51.3427 134.765 51.7306 134.842 52.1119C134.915 52.4865 135.05 52.8463 135.242 53.1762C135.418 53.4945 135.671 53.7635 135.978 53.9588C136.318 54.1699 136.713 54.2761 137.114 54.264C137.4 54.2789 137.686 54.236 137.955 54.1379C138.225 54.0397 138.471 53.8883 138.681 53.6927C139.072 53.2571 139.316 52.7095 139.378 52.1276H142.159C142.055 53.3599 141.473 54.5028 140.537 55.3127C139.558 56.0702 138.343 56.4582 137.106 56.4083C136.366 56.4164 135.632 56.2808 134.944 56.0091C134.312 55.7662 133.74 55.3898 133.267 54.9057C132.801 54.4191 132.436 53.8444 132.194 53.2154C131.931 52.526 131.801 51.7931 131.81 51.0554C131.804 50.2874 131.923 49.5234 132.163 48.7938C132.382 48.1283 132.737 47.5154 133.205 46.9939C133.673 46.4802 134.248 46.0743 134.889 45.8044C135.613 45.5116 136.388 45.3679 137.169 45.3818C137.775 45.379 138.379 45.4606 138.963 45.6244C139.525 45.7719 140.056 46.0212 140.529 46.36C141.002 46.7055 141.389 47.1547 141.66 47.6729C141.932 48.1911 142.081 48.7647 142.096 49.3494H139.276C139.234 48.8405 138.992 48.3688 138.603 48.0374C138.214 47.706 137.71 47.5419 137.2 47.5808Z"></path>
<path fill="#0EAC9F" d="M143.718 48.9034C143.731 48.3079 143.905 47.7269 144.219 47.2209C144.511 46.7815 144.9 46.4148 145.355 46.1487C145.839 45.865 146.37 45.669 146.922 45.5696C147.492 45.454 148.072 45.3964 148.653 45.3975C149.177 45.4011 149.7 45.4377 150.22 45.507C150.734 45.5706 151.234 45.7187 151.7 45.9453C152.134 46.1509 152.511 46.46 152.797 46.8452C153.099 47.2953 153.247 47.8304 153.22 48.3713V53.8493C153.222 54.3043 153.248 54.7588 153.298 55.211C153.323 55.5516 153.422 55.8828 153.588 56.1814H150.666C150.611 56.0201 150.567 55.8554 150.533 55.6883C150.494 55.5186 150.471 55.3457 150.463 55.1718C150.012 55.6312 149.455 55.9726 148.841 56.1657C148.221 56.3527 147.577 56.4476 146.93 56.4474C146.456 56.4495 145.985 56.389 145.527 56.2674C145.115 56.1522 144.73 55.9582 144.392 55.6962C144.057 55.4392 143.789 55.1066 143.608 54.7258C143.417 54.2841 143.323 53.8062 143.334 53.325C143.313 52.816 143.421 52.3101 143.647 51.8537C143.836 51.4915 144.104 51.1761 144.431 50.9303C144.778 50.6962 145.162 50.5217 145.567 50.4138C145.99 50.3042 146.42 50.2103 146.851 50.1399L148.136 49.9755C148.511 49.946 148.883 49.8858 149.249 49.7955C149.533 49.7385 149.801 49.6182 150.032 49.4434C150.127 49.3593 150.2 49.2534 150.245 49.1348C150.29 49.0162 150.306 48.8885 150.29 48.7625C150.304 48.5087 150.253 48.2555 150.141 48.0269C150.048 47.8483 149.907 47.6993 149.734 47.5965C149.552 47.494 149.353 47.425 149.147 47.393C148.908 47.3608 148.667 47.3451 148.426 47.3461C147.952 47.317 147.482 47.4434 147.086 47.7061C146.911 47.8583 146.769 48.0455 146.671 48.2558C146.572 48.4661 146.519 48.6947 146.515 48.9269L143.718 48.9034ZM150.369 51.032C150.236 51.1459 150.081 51.2311 149.914 51.2824C149.722 51.3458 149.525 51.398 149.327 51.4389L148.669 51.5407C148.437 51.5625 148.207 51.5965 147.979 51.6424C147.762 51.6826 147.548 51.7348 147.337 51.7989C147.142 51.8631 146.957 51.9554 146.789 52.0728C146.633 52.1902 146.505 52.3397 146.413 52.5111C146.311 52.7178 146.263 52.9463 146.272 53.1763C146.264 53.4011 146.312 53.6244 146.413 53.8258C146.502 53.9954 146.634 54.1385 146.796 54.2406C146.973 54.3461 147.166 54.4202 147.368 54.4597C147.588 54.498 147.811 54.5163 148.034 54.5145C148.493 54.5401 148.95 54.4428 149.358 54.2327C149.642 54.0685 149.88 53.834 150.048 53.5519C150.188 53.3107 150.281 53.0451 150.322 52.7693C150.349 52.5539 150.365 52.337 150.369 52.1198V51.032Z"></path>
<path fill="#0EAC9F" d="M158.445 41.6875V56.1886H155.562V41.6875H158.445Z"></path>
<path fill="#0EAC9F" d="M163.216 53.552C163.334 53.7712 163.504 53.959 163.71 54.0998C163.923 54.2475 164.162 54.3537 164.414 54.4128C164.893 54.5272 165.393 54.5272 165.872 54.4128C166.085 54.372 166.292 54.298 166.483 54.1937C166.664 54.095 166.819 53.9557 166.937 53.7867C167.065 53.5978 167.128 53.3727 167.117 53.145C167.117 52.7146 166.835 52.3624 166.255 52.1746C165.47 51.9029 164.666 51.6859 163.85 51.5251C163.435 51.4312 163.028 51.3216 162.628 51.1886C162.251 51.0726 161.893 50.904 161.563 50.6877C161.247 50.4887 160.979 50.2213 160.78 49.9052C160.583 49.5486 160.486 49.146 160.498 48.7391C160.471 48.1579 160.606 47.5807 160.889 47.0722C161.146 46.6471 161.508 46.2943 161.939 46.0471C162.392 45.793 162.885 45.6158 163.396 45.5227C164.494 45.3192 165.62 45.3192 166.718 45.5227C167.221 45.6229 167.703 45.8082 168.143 46.0706C168.565 46.3308 168.923 46.6809 169.193 47.0957C169.487 47.5849 169.656 48.1383 169.687 48.7078H166.945C166.952 48.481 166.897 48.2566 166.787 48.0582C166.676 47.8599 166.515 47.695 166.318 47.5809C165.902 47.3776 165.442 47.2783 164.978 47.2914C164.804 47.2804 164.628 47.2804 164.454 47.2914C164.275 47.3039 164.1 47.349 163.937 47.4244C163.782 47.4878 163.645 47.5871 163.537 47.714C163.412 47.8857 163.355 48.0981 163.378 48.3095C163.401 48.5208 163.503 48.7159 163.662 48.8565C163.879 49.0373 164.129 49.173 164.399 49.2556C164.743 49.3684 165.093 49.4599 165.449 49.5295C165.84 49.6078 166.232 49.7017 166.639 49.7956C167.056 49.8855 167.467 50.0005 167.869 50.1399C168.248 50.2647 168.607 50.444 168.935 50.6721C169.253 50.8878 169.521 51.171 169.718 51.5016C169.916 51.8801 170.013 52.3033 170 52.7303C170.023 53.3364 169.88 53.9373 169.585 54.4676C169.319 54.9216 168.948 55.3054 168.504 55.5867C168.025 55.8854 167.493 56.0899 166.937 56.1892C166.359 56.3058 165.771 56.3635 165.182 56.3614C164.582 56.3612 163.984 56.3009 163.396 56.1814C162.842 56.0703 162.312 55.8638 161.829 55.571C161.375 55.2861 160.991 54.9006 160.709 54.4441C160.401 53.9109 160.236 53.3069 160.231 52.6911H162.973C162.965 52.996 163.05 53.2961 163.216 53.552Z"></path>
</g>
<defs>
<clipPath id="clip0_508_70">
<rect fill="white" height="60" width="170"></rect>
</clipPath>
</defs>
</svg>
