<svg viewBox="0 0 115.74 47.57" xmlns="http://www.w3.org/2000/svg" id="Layer_1">
  <defs>
    <style>
      .cls-1 {
        fill: #fff;
      }

      .cls-2 {
        fill: #4d4d4f;
      }

      .cls-3 {
        fill: #003471;
      }
    </style>
  </defs>
  <path d="m115.21.12H25c-.29,0-.53.24-.53.53s.24.53.53.53h89.68v45.39H8.54c-3.9,0-5.78-.65-6.69-1.48-1.35-3.83,4.95-3.29,11.33-2.98.8.01,1.55-.02,2.25-.08-.14-.45-.17-.94-.08-1.41-.44-2.06-3.07-10.94-8.88-15.8-.85-.71-1.01-1.94-.39-2.85,1.58-2.28,5.13-8.79,5.05-21.31,0,0,0,0,0,0,0,0,0,0,0,0,0-.29-.24-.53-.53-.53H.53C.24.12,0,.36,0,.65v42.55c0,2.98,2.79,4.43,8.54,4.43h106.67c.29,0,.53-.24.53-.53V.65c0-.29-.24-.53-.53-.53Z" class="cls-3"></path>
  <path d="m17.56,40.82c-.19.23-.12.79.13.78v-20.3c-.51-.06-.91-.49-.91-1.02,0-.57.46-1.03,1.03-1.03s1.03.46,1.03,1.03c0,.53-.4.96-.91,1.02v20.3c.25.01.32-.55.13-.78.05-.84,2.7-11.76,9.7-17.63-.59-.87-5.37-7.47-5.43-22.49,0-.38-.31-.7-.69-.7h-7.65c-.38,0-.69.31-.69.7-.06,15.03-4.83,21.63-5.43,22.49,7,5.87,9.65,16.79,9.7,17.63Z" class="cls-2"></path>
  <path d="m51.05,36.19c0-.55-.21-1.08-.55-1.41-.45-.44-1.09-.66-2.12-.66-.55,0-1.22.06-1.71.17v7.79h.56v-3.62h1.23c1.04.04,1.53.56,1.77,1.7.21,1,.38,1.69.5,1.92h.58c-.16-.31-.32-.9-.59-2.13-.19-.88-.59-1.47-1.22-1.68v-.02c.92-.31,1.55-1,1.55-2.06Zm-2.57,1.82h-1.26v-3.32c.2-.05.6-.11,1.14-.11,1.24,0,2.13.49,2.13,1.7,0,1.04-.79,1.72-2.01,1.72Z" class="cls-2"></path>
  <path d="m57.12,34.05c-1.97,0-3.54,1.57-3.54,4.16s1.5,4,3.45,4c1.83,0,3.54-1.37,3.54-4.16,0-2.45-1.45-4-3.44-4Zm-.06,7.69c-1.87,0-2.9-1.77-2.9-3.55s.93-3.67,2.92-3.67,2.9,1.9,2.9,3.57c0,1.95-1.04,3.66-2.92,3.66Z" class="cls-2"></path>
  <path d="m62.82,34.18v7.9h.56v-3.27l.81-.89,3,4.16h.68l-3.29-4.54,3.01-3.35h-.69l-2.8,3.18c-.21.25-.44.52-.67.83h-.04v-4h-.56Z" class="cls-2"></path>
  <path d="m72.98,34.18l-2.86,7.9h.57l.98-2.76h3.13l.99,2.76h.58l-2.85-7.9h-.54Zm1.65,4.67h-2.78l.97-2.66c.17-.5.3-.91.41-1.37h.03c.11.45.22.84.41,1.39l.96,2.64Z" class="cls-2"></path>
  <path d="m80.57,41.72c-.66,0-1.28-.22-1.73-.52l-.21.47c.41.31,1.2.53,1.89.53,1.69,0,2.5-1.03,2.5-2.17s-.69-1.78-1.99-2.3c-1.13-.44-1.64-.89-1.64-1.77,0-.62.43-1.44,1.71-1.44.68,0,1.18.23,1.39.37l.22-.47c-.27-.18-.83-.37-1.57-.37-1.34,0-2.3.84-2.3,2,0,1.07.76,1.73,2.03,2.18,1.14.44,1.6.96,1.6,1.85,0,.97-.72,1.64-1.9,1.64Z" class="cls-2"></path>
  <polygon points="90.76 42.08 90.76 34.18 90.2 34.18 90.2 37.65 85.84 37.65 85.84 34.18 85.29 34.18 85.29 42.08 85.84 42.08 85.84 38.12 90.2 38.12 90.2 42.08 90.76 42.08" class="cls-2"></polygon>
  <path d="m93.02,38.21c0,2.47,1.5,4,3.45,4,1.83,0,3.54-1.37,3.54-4.16,0-2.45-1.45-4-3.44-4s-3.54,1.57-3.54,4.16Zm3.5-3.69c1.99,0,2.9,1.9,2.9,3.57,0,1.95-1.05,3.66-2.92,3.66s-2.9-1.77-2.9-3.55.93-3.67,2.92-3.67Z" class="cls-2"></path>
  <path d="m104.3,37.48l3.01,4.6h.52v-7.9h-.54v3.93c0,1.24,0,2.14.09,3.21l-.02.02c-.38-.77-.84-1.5-1.48-2.49l-3.08-4.67h-.53v7.9h.54v-4c0-1.32,0-2.16-.07-3.14l.03-.02c.4.82.94,1.65,1.53,2.56Z" class="cls-2"></path>
  <rect height="7.9" width=".56" y="34.18" x="110.1" class="cls-2"></rect>
  <path d="m54.71,24.77c0-2.2-1.34-4.15-3.98-4.15s-4.08,1.9-4.08,4.28,1.4,4.19,3.94,4.19,4.12-1.68,4.12-4.32Zm-5.73.09c0-1.51.67-2.5,1.71-2.5s1.7,1.07,1.7,2.48-.62,2.51-1.68,2.51-1.72-.94-1.72-2.49Z" class="cls-3"></path>
  <path d="m56.08,28.95h2.01v-2.01c0-1.33-.03-2.57-.08-3.67h.04c.39.99.93,2.09,1.38,2.96l1.39,2.73h2.32v-8.2h-2.01v1.94c0,1.23.04,2.37.16,3.45h-.03c-.36-.96-.84-2.06-1.29-2.87l-1.3-2.51h-2.59v8.2Z" class="cls-3"></path>
  <path d="m64.51,24.9c0,2.28,1.4,4.19,3.94,4.19s4.12-1.68,4.12-4.32c0-2.2-1.34-4.15-3.98-4.15s-4.08,1.9-4.08,4.28Zm4.03-2.54c1.07,0,1.7,1.07,1.7,2.48s-.62,2.51-1.68,2.51-1.72-.94-1.72-2.49.67-2.5,1.71-2.5Z" class="cls-3"></path>
  <path d="m75.81,28.95h2.43l.62-3.2c.15-.73.25-1.5.39-2.46h.02c.1.97.21,1.74.33,2.45l.55,3.21h2.39l2.02-8.2h-2.23l-.48,3.01c-.15.97-.3,1.93-.41,2.86h-.02c-.12-.93-.22-1.76-.37-2.71l-.51-3.16h-2.35l-.53,3.01c-.18,1-.35,1.99-.48,2.91h-.02c-.13-.84-.28-1.93-.42-2.88l-.47-3.04h-2.36l1.88,8.2Z" class="cls-3"></path>
  <path d="m88.33,20.75l-2.38,8.2h2.27l.46-1.9h2.12l.52,1.9h2.37l-2.45-8.2h-2.93Zm.65,4.68l.35-1.47c.12-.46.24-1.14.36-1.62h.02c.13.48.28,1.15.41,1.62l.38,1.48h-1.53Z" class="cls-3"></path>
  <path d="m101.3,23.11c0-.8-.28-1.39-.81-1.79-.62-.47-1.52-.64-2.77-.64-1.1,0-2.03.08-2.65.18v8.09h2.18v-3.08h.36c.68,0,.98.2,1.2,1.19.24,1.01.45,1.65.57,1.89h2.24c-.16-.32-.43-1.51-.68-2.34-.21-.71-.5-1.24-1.05-1.47v-.04c.64-.23,1.4-.96,1.4-1.98Zm-3.49,1.19h-.57v-1.94c.11-.03.33-.05.74-.05.73,0,1.13.36,1.13.97s-.48,1.02-1.31,1.02Z" class="cls-3"></path>
  <path d="m105.26,28.95l.46-1.9h2.12l.52,1.9h2.37l-2.45-8.2h-2.93l-2.38,8.2h2.27Zm1.11-4.99c.12-.46.24-1.14.36-1.62h.02c.13.48.28,1.15.41,1.62l.38,1.48h-1.53l.35-1.47Z" class="cls-3"></path>
  <path d="m30.97,41.6V5.55c0-.29-.24-.53-.53-.53s-.53.24-.53.53v36.05c0,.29.24.53.53.53s.53-.24.53-.53Z" class="cls-3"></path>
  <g>
    <rect height="11.9" width="11.9" y="17.84" x="32.68" class="cls-3"></rect>
    <path d="m40.28,18.87l-.74,2.63c-.29,1.04-.62,2.43-.89,3.63h-.05c-.2-1.21-.5-2.51-.77-3.61l-.65-2.65h-3.55l-.61,9.84h2.43l.15-3.52c.04-1.12.09-2.59.15-3.97h.03c.23,1.35.53,2.81.79,3.87l.82,3.42h2.06l.98-3.43c.32-1.08.73-2.55,1.04-3.86h.04c0,1.54.02,2.85.06,3.97l.12,3.52h2.56l-.49-9.84h-3.47Z" class="cls-1"></path>
  </g>
  <g>
    <rect height="11.9" width="11.9" y="31.09" x="32.68" class="cls-2"></rect>
    <path d="m34.87,32.28c.72-.12,1.76-.22,3.26-.22s2.45.26,3.14.79c.67.5,1.13,1.36,1.13,2.37s-.34,1.86-.97,2.43c-.79.7-1.95,1.03-3.28,1.03-.26,0-.48-.03-.65-.03v3.36h-2.62v-9.74Zm2.62,4.36c.15.01.32.03.6.03,1.03,0,1.67-.53,1.67-1.38,0-.73-.48-1.23-1.5-1.23-.38,0-.64.03-.78.06v2.52Z" class="cls-1"></path>
  </g>
  <g>
    <rect height="11.9" width="11.9" y="4.58" x="32.68" class="cls-3"></rect>
    <path d="m36.67,5.14l-3.13,10.78h2.99l.61-2.5h2.79l.69,2.5h3.12l-3.22-10.78h-3.85Zm.85,6.15l.46-1.93c.16-.61.32-1.5.48-2.14h.03c.17.64.37,1.52.54,2.12l.5,1.94h-2.01Z" class="cls-1"></path>
  </g>
  <g>
    <path d="m46.88,6.86h2.42v3.88h.03c.18-.34.39-.68.59-1.01l1.76-2.88h3.01l-2.9,3.89,3.02,5.25h-2.84l-1.92-3.71-.73.94v2.77h-2.42V6.86Z" class="cls-3"></path>
    <path d="m58.1,6.86v9.14h-2.45V6.86h2.45Z" class="cls-3"></path>
    <path d="m61.53,6.86h2.45v5.64c0,2.67-1.27,3.65-3.47,3.65-.5,0-1.16-.07-1.62-.22l.26-1.97c.3.08.68.15,1.08.15.79,0,1.3-.35,1.3-1.61v-5.65Z" class="cls-3"></path>
  </g>
</svg>